<svg xmlns="http://www.w3.org/2000/svg" width="834" height="181" viewBox="0 0 834 181" fill="none"><path d="M16.6 147.3C16.6 151.5 15.6 154.4 13.6 156.1C11.6 157.8 8.3 158.7 3.7 158.7C3.1 158.7 2.40001 158.7 1.80001 158.6C1.20001 158.6 0.600006 158.5 0.100006 158.5V179.7C0.900006 179.8 2.10001 179.9 3.60001 180C5.10001 180.1 6.50001 180.1 7.80001 180.1C19.9 180.1 29.1 177.4 35.4 172C41.7 166.6 44.8 158.6 44.8 148.2V42.8H16.6V147.3ZM30.7 0.200012C26.5 0.200012 22.9 1.6 20 4.5C17.1 7.4 15.6 10.8 15.6 14.8C15.6 18.8 17.1 22.2 20 25.2C22.9 28.1 26.5 29.6 30.7 29.6C34.9 29.6 38.5 28.1 41.4 25.2C44.3 22.3 45.7 18.8 45.7 14.8C45.7 10.8 44.3 7.3 41.4 4.5C38.5 1.6 35 0.200012 30.7 0.200012ZM130.8 102.1C130.8 106.5 129.9 110.5 128.2 113.9C126.5 117.3 124.1 120 121.1 121.9C118.1 123.8 114.4 124.8 110.2 124.8C103.9 124.8 99.2 122.9 96 119.2C92.8 115.5 91.2 110.2 91.2 103.5V42.8H63.1V109.4C63.1 117.4 64.5 124.3 67.2 130.1C70 135.9 74 140.3 79.3 143.4C84.6 146.5 91.1 148.1 98.6 148.1C106.4 148.1 113 146.4 118.2 143C123.5 139.6 127.4 134.9 130 128.9H130.7V145.9H158.8V42.8H130.7V102.1H130.8ZM260 47C253.7 42.7 246.2 40.6 237.5 40.6C232.6 40.6 228.1 41.4 224.1 43C220 44.6 216.5 46.9 213.4 49.9C210.3 52.9 207.9 56.5 206 60.7H205.3V42.7H177.2V179.6H205.3V128.3H205.9C207.8 132.4 210.3 135.9 213.4 138.8C216.5 141.7 220.1 144 224.3 145.6C228.5 147.2 233 148 237.9 148C246.6 148 254 145.8 260.2 141.6C266.4 137.3 271.2 131.1 274.6 123.1C278 115.1 279.7 105.5 279.7 94.3V94.2C279.7 83 278 73.4 274.6 65.4C271.1 57.5 266.2 51.3 260 47ZM250.9 94.4C250.9 100.6 250 106 248.2 110.6C246.4 115.2 243.8 118.7 240.3 121.1C236.9 123.6 232.9 124.8 228.2 124.8C223.6 124.8 219.7 123.6 216.2 121.1C212.8 118.6 210.1 115.1 208.1 110.6C206.1 106 205.2 100.7 205.2 94.5V94.4C205.2 88.2 206.2 82.8 208.1 78.2C210 73.6 212.7 70.1 216.2 67.7C219.7 65.2 223.7 64 228.2 64C232.8 64 236.8 65.2 240.2 67.7C243.6 70.1 246.2 73.6 248.1 78.1C250 82.6 250.9 88 250.9 94.4ZM294.6 146H322.8V42.8H294.6V146ZM308.8 0.200012C304.6 0.200012 301 1.6 298.1 4.5C295.2 7.4 293.7 10.8 293.7 14.8C293.7 18.8 295.2 22.2 298.1 25.2C301 28.1 304.6 29.6 308.8 29.6C313 29.6 316.6 28.1 319.5 25.2C322.4 22.3 323.8 18.8 323.8 14.8C323.8 10.8 322.4 7.3 319.5 4.5C316.6 1.6 313 0.200012 308.8 0.200012ZM377.3 17.5H348.9V42.7H334.6V63.9H348.9V117C348.9 128 351.7 136 357.2 140.8C362.7 145.6 371.2 148 382.6 148C385.6 148 388.2 147.9 390.5 147.7C392.8 147.5 394.7 147.2 396.2 147V126.4C395.4 126.5 394.5 126.6 393.5 126.7C392.5 126.8 391.4 126.8 390.1 126.8C385.9 126.8 382.7 125.9 380.5 124C378.3 122.1 377.3 118.8 377.3 113.9V63.8H396.2V42.6H377.3V17.5ZM480.7 47C473.4 42.7 464.6 40.6 454.6 40.6C444.5 40.6 435.8 42.8 428.4 47.2C421 51.6 415.2 57.8 411.1 65.9C407 74 404.9 83.5 404.9 94.4V94.5C404.9 105.5 407 115 411.1 123C415.2 131 421 137.2 428.6 141.5C436.2 145.8 445.2 148 455.7 148C463.1 148 469.5 147 475 145.1C480.5 143.2 485.1 140.6 489 137.4C492.8 134.2 495.9 130.7 498.1 126.8C500.3 123 501.8 119.1 502.6 115.3L502.9 114.2H477.1L476.9 114.8C476.3 116.7 475 118.6 473.2 120.5C471.4 122.4 469.1 123.9 466.3 125.1C463.5 126.3 460.1 126.9 456.3 126.9C451.4 126.9 447.2 125.8 443.7 123.7C440.2 121.6 437.5 118.5 435.6 114.4C433.8 110.6 433 106.1 432.9 100.9H503.9V92.1C503.9 81.7 501.9 72.6 497.9 64.9C493.8 57.3 488.1 51.3 480.7 47ZM433.3 83.3C433.7 79.9 434.4 76.7 435.6 74.1C437.5 70 440.1 66.9 443.5 64.8C446.9 62.7 450.7 61.6 455.1 61.6C459.5 61.6 463.3 62.6 466.6 64.7C469.9 66.8 472.5 69.8 474.3 73.9C475.5 76.6 476.2 79.8 476.6 83.3H433.3ZM574.9 40.9C573.5 40.7 572 40.6 570.5 40.6C564.4 40.6 559.3 42.3 555.1 45.8C550.9 49.3 548.1 54.1 546.5 60.3H545.9V42.7H518.3V146H546.4V87.9C546.4 83.1 547.3 79 549 75.6C550.7 72.2 553.2 69.6 556.5 67.8C559.8 66 563.7 65.1 568.3 65.1C570.4 65.1 572.3 65.2 574.1 65.5C575.9 65.8 577.4 66.2 578.5 66.7V41.9C577.5 41.4 576.3 41.1 574.9 40.9Z" fill="black"></path><path d="M743.3 146L694.2 76.5L677 100.9L708.8 146H743.3Z" fill="#FC4CDA"></path><path d="M610.6 146H645.2L677 100.9L659.7 76.5L610.6 146Z" fill="#0077FF"></path><path d="M659.7 76.5L677 100.9L694.2 76.5L677 52.1L659.7 76.5Z" fill="#3613FA"></path><path d="M708.8 7L677 52.1L694.2 76.5L743.3 7H708.8Z" fill="#2CE5E5"></path><path d="M645.2 7H610.6L659.7 76.5L677 52.1L645.2 7Z" fill="#3613FA"></path><path d="M694.2 76.5L677 52.1L659.7 76.5L677 100.9L694.2 76.5Z" fill="#0400B5"></path><path d="M794.6 73.2C790.8 71.5 787.8 69.2 785.6 66.3C783.4 63.4 782.1 60 781.8 56.1V55.5H795.2L795.3 56C795.6 58.4 796.8 60.4 799.1 62C801.3 63.6 804.3 64.4 807.9 64.4C810.3 64.4 812.4 64 814.2 63.2C816 62.4 817.3 61.3 818.3 59.9C819.3 58.5 819.8 56.9 819.8 55.1V55C819.8 51.8 818.7 49.4 816.4 47.7C814.1 46 811 45.1 806.9 45.1H799.2V35.1H806.7C809 35.1 811.1 34.7 812.8 33.9C814.5 33.1 815.9 32.1 816.8 30.7C817.8 29.3 818.2 27.8 818.2 26V25.9C818.2 24.1 817.8 22.5 817 21.2C816.2 19.9 815 18.9 813.4 18.2C811.8 17.5 810 17.2 807.8 17.2C805.6 17.2 803.7 17.5 802 18.2C800.3 18.9 799 19.9 798 21.2C797 22.5 796.4 24 796.2 25.7V26.2H783.3V25.6C783.6 21.7 784.9 18.4 786.9 15.5C789 12.6 791.8 10.4 795.4 8.79999C799 7.19999 803.1 6.39999 807.7 6.39999C812.5 6.39999 816.7 7.10001 820.2 8.60001C823.7 10.1 826.5 12.1 828.4 14.7C830.3 17.3 831.3 20.4 831.3 23.9V24C831.3 26.8 830.7 29.2 829.4 31.4C828.2 33.5 826.5 35.3 824.4 36.6C822.3 38 819.9 38.9 817.3 39.4V39.7C822.3 40.2 826.3 41.8 829.2 44.5C832.2 47.3 833.7 50.9 833.7 55.4V55.5C833.7 59.5 832.6 63 830.5 66C828.3 69 825.3 71.4 821.4 73C817.5 74.6 812.9 75.5 807.7 75.5C802.8 75.7 798.4 74.9 794.6 73.2Z" fill="#919191"></path></svg>